<?xml version="1.0" encoding="utf-8"?>
<!-- Generator: Adobe Illustrator 21.0.0, SVG Export Plug-In . SVG Version: 6.00 Build 0)  -->
<svg version="1.1" id="Layer_1" xmlns="http://www.w3.org/2000/svg" xmlns:xlink="http://www.w3.org/1999/xlink" x="0px" y="0px"
	 viewBox="0 0 34.3 34.3" style="enable-background:new 0 0 34.3 34.3;" xml:space="preserve">
<style type="text/css">
	.st0{fill:#595959;}
	.st1{fill:#404040;}
</style>
<g>
	<g>
		
			<rect x="21.3" y="20.1" transform="matrix(0.7071 -0.7071 0.7071 0.7071 -9.4606 22.8008)" class="st0" width="2.9" height="5.4"/>
		<path class="st1" d="M25.9,21.4l7.9,7.9c0.7,0.7,0.7,1.8,0,2.5l-2.1,2.1c-0.7,0.7-1.8,0.7-2.5,0l-7.9-7.9c-0.7-0.7-0.7-1.8,0-2.5
			l2.1-2.1C24.1,20.7,25.2,20.7,25.9,21.4z"/>
	</g>
	<path class="st1" d="M12.9,25.7C5.8,25.7,0,19.9,0,12.9S5.8,0,12.9,0c7.1,0,12.9,5.8,12.9,12.9S19.9,25.7,12.9,25.7z M12.9,2.9
		c-5.5,0-9.9,4.5-9.9,9.9s4.5,9.9,9.9,9.9c5.5,0,9.9-4.5,9.9-9.9S18.3,2.9,12.9,2.9z"/>
</g>
</svg>
